# Blender v2.93.5 OBJ File: 'Tile Sample.blend'
# www.blender.org
mtllib Floor.mtl
o Floor_Small_Plane.005
v -38.224228 0.000000 -38.224228
v -38.224228 0.000000 38.224228
v 38.224228 0.000000 38.224228
v 38.224228 0.000000 -38.224228
v -8.655789 0.000000 -38.224228
v 8.655788 0.000000 -38.224228
v 8.655789 0.000000 38.224228
v -8.655788 0.000000 38.224228
v -38.224228 0.000000 8.655789
v -38.224228 0.000000 -8.655788
v 38.224228 0.000000 -8.655789
v 38.224228 0.000000 8.655788
v 8.655789 0.000000 -8.655788
v -8.655788 0.000000 -8.655789
v -8.655789 0.000000 8.655788
v 8.655788 0.000000 8.655789
v 8.655788 0.270392 8.655789
v 8.655789 0.270392 -8.655788
v -8.655788 0.270392 -8.655789
v -8.655789 0.270392 8.655788
v 8.655788 0.270392 -38.224228
v -8.655789 0.270392 -38.224228
v -8.655788 0.270392 38.224228
v 8.655789 0.270392 38.224228
v -38.224228 0.270392 -8.655788
v -38.224228 0.270392 8.655789
v 38.224228 0.270392 8.655788
v 38.224228 0.270392 -8.655789
v 8.655788 0.756531 8.655789
v 8.655789 0.756531 -8.655788
v -8.655788 0.756531 -8.655789
v -8.655789 0.756531 8.655788
vt 0.000000 0.000000
vt 0.000000 0.000000
vt 0.000000 0.000000
vt 0.000000 0.000000
vt 0.000000 0.000000
vt 0.000000 0.000000
vt 0.000000 0.000000
vt 0.000000 0.000000
vt 0.000000 0.000000
vt 0.000000 0.000000
vt 0.000000 0.000000
vt 0.000000 0.000000
vt 0.000000 0.000000
vt 0.000000 0.000000
vt 0.000000 0.000000
vt 0.000000 0.000000
vt 0.000000 0.000000
vt 0.000000 0.000000
vt 0.000000 0.000000
vt 0.000000 0.000000
vt 0.000000 0.000000
vt 0.000000 0.000000
vt 0.000000 0.000000
vt 0.000000 0.000000
vt 0.000000 0.000000
vt 0.000000 0.000000
vt 0.000000 0.000000
vt 0.000000 0.000000
vt 0.000000 0.000000
vt 0.000000 0.000000
vt 0.000000 0.000000
vt 0.000000 0.000000
vn 0.0000 1.0000 0.0000
vn -0.0000 0.0000 -1.0000
vn 1.0000 0.0000 0.0000
vn -1.0000 0.0000 0.0000
vn 0.0000 0.0000 1.0000
usemtl small_house
s off
f 10/1/1 14/2/1 5/3/1 1/4/1
f 2/5/1 8/6/1 15/7/1 9/8/1
f 7/9/1 3/10/1 12/11/1 16/12/1
f 14/2/2 10/1/2 25/13/2 19/14/2
f 12/11/3 11/15/3 28/16/3 27/17/3
f 5/3/4 14/2/4 19/14/4 22/18/4
f 15/7/4 8/6/4 23/19/4 20/20/4
f 9/8/5 15/7/5 20/20/5 26/21/5
f 13/22/1 11/15/1 4/23/1 6/24/1
f 18/25/2 19/14/2 31/26/2 30/27/2
f 18/25/1 21/28/1 22/18/1 19/14/1
f 24/29/1 17/30/1 20/20/1 23/19/1
f 19/14/1 25/13/1 26/21/1 20/20/1
f 28/16/1 18/25/1 17/30/1 27/17/1
f 8/6/5 7/9/5 24/29/5 23/19/5
f 11/15/2 13/22/2 18/25/2 28/16/2
f 13/22/3 6/24/3 21/28/3 18/25/3
f 10/1/4 9/8/4 26/21/4 25/13/4
f 7/9/3 16/12/3 17/30/3 24/29/3
f 16/12/5 12/11/5 27/17/5 17/30/5
f 6/24/2 5/3/2 22/18/2 21/28/2
f 30/27/1 31/26/1 32/31/1 29/32/1
f 19/14/4 20/20/4 32/31/4 31/26/4
f 17/30/3 18/25/3 30/27/3 29/32/3
f 20/20/5 17/30/5 29/32/5 32/31/5
